<?xml version="1.0" encoding="UTF-8"?>
<!DOCTYPE svg PUBLIC "-//W3C//DTD SVG 1.1//EN" "http://www.w3.org/Graphics/SVG/1.1/DTD/svg11.dtd">
<svg xmlns="http://www.w3.org/2000/svg" version="1.1" width="200px" height="200px" style="shape-rendering:geometricPrecision; text-rendering:geometricPrecision; image-rendering:optimizeQuality; fill-rule:evenodd; clip-rule:evenodd" xmlns:xlink="http://www.w3.org/1999/xlink">
<g><path style="opacity:1" fill="#4f3f96" d="M -0.5,-0.5 C 66.1667,-0.5 132.833,-0.5 199.5,-0.5C 199.5,66.1667 199.5,132.833 199.5,199.5C 132.833,199.5 66.1667,199.5 -0.5,199.5C -0.5,132.833 -0.5,66.1667 -0.5,-0.5 Z"/></g>
<g><path style="opacity:1" fill="#514293" d="M 96.5,89.5 C 94.7019,94.2196 92.7019,98.8862 90.5,103.5C 91.365,104.583 92.365,104.749 93.5,104C 94.0659,103.005 94.7326,102.172 95.5,101.5C 95.9038,102.756 96.5705,103.923 97.5,105C 96.5765,106.811 95.7431,106.645 95,104.5C 92.4355,106.179 89.6021,106.846 86.5,106.5C 86.5,107.833 86.5,109.167 86.5,110.5C 90.5807,110.357 94.414,110.024 98,109.5C 98.5,109.833 99,110.167 99.5,110.5C 98.624,111.251 97.624,111.751 96.5,112C 97.1445,116.815 99.8112,119.315 104.5,119.5C 104.5,116.833 104.5,114.167 104.5,111.5C 104.833,111.5 105.167,111.5 105.5,111.5C 105.5,114.833 105.5,118.167 105.5,121.5C 102.518,121.104 99.8511,121.771 97.5,123.5C 96.3348,122.509 95.1681,121.509 94,120.5C 92.8615,120.989 91.6948,121.322 90.5,121.5C 92.6886,118.879 95.022,118.879 97.5,121.5C 97.8333,121.167 98.1667,120.833 98.5,120.5C 96.9239,118.021 95.9239,115.354 95.5,112.5C 94.325,112.281 93.325,112.614 92.5,113.5C 92.0576,114.739 91.3909,115.739 90.5,116.5C 91.1667,112.5 89.5,110.833 85.5,111.5C 85.6138,114.216 84.6138,116.216 82.5,117.5C 81.3218,116.001 79.6551,115.001 77.5,114.5C 79.6551,113.999 81.3218,112.999 82.5,111.5C 83.7928,109.636 83.7928,107.636 82.5,105.5C 81.5224,105.977 80.6891,106.643 80,107.5C 80.5218,105.12 80.3552,102.787 79.5,100.5C 80.8366,101.315 81.8366,102.482 82.5,104C 83.8333,104.667 85.1667,104.667 86.5,104C 85.0443,102.255 83.711,100.422 82.5,98.5C 87.7948,94.9047 87.7948,91.4047 82.5,88C 79.1832,87.5017 75.8499,87.335 72.5,87.5C 76.97,86.5139 81.6367,86.1805 86.5,86.5C 86.67,85.1779 86.3366,84.0113 85.5,83C 87.1346,82.4604 88.4679,82.9604 89.5,84.5C 90.9337,83.0642 92.1004,81.3975 93,79.5C 96.3333,81.8333 96.3333,84.1667 93,86.5C 92.3333,88.1667 92.3333,89.8333 93,91.5C 93.8159,90.1772 94.9826,89.5106 96.5,89.5 Z"/></g>
<g><path style="opacity:1" fill="#f9f4ff" d="M 26.5,84.5 C 27.5,84.5 28.5,84.5 29.5,84.5C 29.5,85.5 29.5,86.5 29.5,87.5C 28.5,87.5 27.5,87.5 26.5,87.5C 26.5,86.5 26.5,85.5 26.5,84.5 Z"/></g>
<g><path style="opacity:1" fill="#f9f4fc" d="M 43.5,87.5 C 45.1667,87.5 46.8333,87.5 48.5,87.5C 48.5,88.5 48.5,89.5 48.5,90.5C 46.8333,90.5 45.1667,90.5 43.5,90.5C 43.5,89.5 43.5,88.5 43.5,87.5 Z"/></g>
<g><path style="opacity:1" fill="#f5f2f9" d="M 56.5,90.5 C 56.5,89.5 56.5,88.5 56.5,87.5C 59.8333,87.5 63.1667,87.5 66.5,87.5C 66.5,88.5 66.5,89.5 66.5,90.5C 63.1667,90.5 59.8333,90.5 56.5,90.5 Z"/></g>
<g><path style="opacity:1" fill="#f9f5fd" d="M 123.5,87.5 C 123.5,88.5 123.5,89.5 123.5,90.5C 121.833,90.5 120.167,90.5 118.5,90.5C 118.5,89.5 118.5,88.5 118.5,87.5C 120.167,87.5 121.833,87.5 123.5,87.5 Z"/></g>
<g><path style="opacity:1" fill="#f5f1f8" d="M 163.5,90.5 C 163.5,89.5 163.5,88.5 163.5,87.5C 166.833,87.5 170.167,87.5 173.5,87.5C 173.5,88.5 173.5,89.5 173.5,90.5C 170.167,90.5 166.833,90.5 163.5,90.5 Z"/></g>
<g><path style="opacity:1" fill="#f7f3fc" d="M 39.5,87.5 C 39.5,88.5 39.5,89.5 39.5,90.5C 37.8333,90.5 36.1667,90.5 34.5,90.5C 34.5,89.5 34.5,88.5 34.5,87.5C 36.1667,87.5 37.8333,87.5 39.5,87.5 Z"/></g>
<g><path style="opacity:1" fill="#ede9f7" d="M 130.5,90.5 C 129.5,90.5 128.5,90.5 127.5,90.5C 127.5,89.5 127.5,88.5 127.5,87.5C 128.5,87.5 129.5,87.5 130.5,87.5C 130.5,88.5 130.5,89.5 130.5,90.5 Z"/></g>
<g><path style="opacity:1" fill="#aaa2ca" d="M 39.5,87.5 C 40.1515,88.0906 40.8182,88.7573 41.5,89.5C 42.1818,88.7573 42.8485,88.0906 43.5,87.5C 43.5,88.5 43.5,89.5 43.5,90.5C 43.8195,95.3633 43.4861,100.03 42.5,104.5C 41.8333,85.8333 41.1667,85.8333 40.5,104.5C 39.5386,102.735 39.2053,100.735 39.5,98.5C 39.5,95.8333 39.5,93.1667 39.5,90.5C 39.5,89.5 39.5,88.5 39.5,87.5 Z"/></g>
<g><path style="opacity:1" fill="#f2eef8" d="M 138.5,88.5 C 139.708,87.218 141.042,87.218 142.5,88.5C 143.716,92.3213 145.216,95.9879 147,99.5C 148.793,95.954 150.293,92.2873 151.5,88.5C 152.325,87.6143 153.325,87.281 154.5,87.5C 153.068,93.6926 150.568,99.3593 147,104.5C 146.228,104.355 145.561,104.022 145,103.5C 143.295,98.1926 141.129,93.1926 138.5,88.5 Z"/></g>
<g><path style="opacity:1" fill="#f9f5fc" d="M 26.5,90.5 C 27.5,90.5 28.5,90.5 29.5,90.5C 29.5,95.1667 29.5,99.8333 29.5,104.5C 28.5,104.5 27.5,104.5 26.5,104.5C 26.5,99.8333 26.5,95.1667 26.5,90.5 Z"/></g>
<g><path style="opacity:1" fill="#fefafe" d="M 42.5,104.5 C 41.8333,104.5 41.1667,104.5 40.5,104.5C 41.1667,85.8333 41.8333,85.8333 42.5,104.5 Z"/></g>
<g><path style="opacity:1" fill="#faf6fc" d="M 53.5,90.5 C 54.5,90.5 55.5,90.5 56.5,90.5C 56.5,91.8333 56.5,93.1667 56.5,94.5C 59.5,94.5 62.5,94.5 65.5,94.5C 65.5,95.5 65.5,96.5 65.5,97.5C 62.5,97.5 59.5,97.5 56.5,97.5C 56.5,98.8333 56.5,100.167 56.5,101.5C 59.3583,102.166 62.3583,102.833 65.5,103.5C 61.5546,104.491 57.5546,104.824 53.5,104.5C 53.5,99.8333 53.5,95.1667 53.5,90.5 Z"/></g>
<g><path style="opacity:1" fill="#514293" d="M 123.5,87.5 C 121.833,87.5 120.167,87.5 118.5,87.5C 118.5,88.5 118.5,89.5 118.5,90.5C 120.167,90.5 121.833,90.5 123.5,90.5C 122.699,92.0418 122.366,93.7085 122.5,95.5C 123.5,95.5 124.5,95.5 125.5,95.5C 125.917,99.8346 126.417,104.168 127,108.5C 127.333,107.833 127.667,107.167 128,106.5C 129.044,107.623 129.71,108.956 130,110.5C 130.495,108.527 130.662,106.527 130.5,104.5C 131.5,104.5 132.5,104.5 133.5,104.5C 133.007,106.806 132.674,109.139 132.5,111.5C 131.833,111.5 131.5,111.833 131.5,112.5C 131.5,115.5 131.5,118.5 131.5,121.5C 130.521,118.375 130.187,115.042 130.5,111.5C 128.833,111.5 127.167,111.5 125.5,111.5C 125.5,112.5 125.5,113.5 125.5,114.5C 124.5,114.5 123.5,114.5 122.5,114.5C 122.802,117.059 122.468,119.393 121.5,121.5C 121.5,118.833 121.5,116.167 121.5,113.5C 125.444,112.726 125.277,112.059 121,111.5C 119.319,111.608 118.152,112.275 117.5,113.5C 116.25,113.423 115.417,112.756 115,111.5C 114.83,105.472 114.33,99.4725 113.5,93.5C 112.675,97.1224 112.175,100.789 112,104.5C 110.684,103.026 109.684,101.359 109,99.5C 108.833,100.333 108.667,101.167 108.5,102C 109.312,104.622 110.312,107.122 111.5,109.5C 109.027,109.201 106.86,108.201 105,106.5C 104.5,106.833 104,107.167 103.5,107.5C 104.246,108.736 104.579,110.07 104.5,111.5C 103.265,111.721 102.265,112.388 101.5,113.5C 100.548,112.467 100.548,111.3 101.5,110C 100.144,108.433 99.4772,106.6 99.5,104.5C 100.5,104.5 101.5,104.5 102.5,104.5C 102.5,103.5 102.5,102.5 102.5,101.5C 100.167,101.5 97.8333,101.5 95.5,101.5C 96.6216,100.844 97.9549,100.511 99.5,100.5C 102.519,101.309 105.185,102.642 107.5,104.5C 105.5,98.8333 103.5,93.1667 101.5,87.5C 100.167,87.5 98.8333,87.5 97.5,87.5C 98.5676,86.5655 99.901,86.2322 101.5,86.5C 102.382,79.7324 106.049,77.7324 112.5,80.5C 112,81.5 111.5,82.5 111,83.5C 109.89,81.9632 108.39,81.2965 106.5,81.5C 106.5,82.5 106.5,83.5 106.5,84.5C 108.677,84.5861 110.677,85.2528 112.5,86.5C 115.435,77.32 118.102,77.32 120.5,86.5C 121.791,86.2627 122.791,86.596 123.5,87.5 Z"/></g>
<g><path style="opacity:1" fill="#f9f5fd" d="M 115.5,90.5 C 116.5,90.5 117.5,90.5 118.5,90.5C 118.5,95.1667 118.5,99.8333 118.5,104.5C 117.5,104.5 116.5,104.5 115.5,104.5C 115.5,99.8333 115.5,95.1667 115.5,90.5 Z"/></g>
<g><path style="opacity:1" fill="#e9e3f9" d="M 115.5,90.5 C 113.5,90.5 111.5,90.5 109.5,90.5C 109.5,89.5 109.5,88.5 109.5,87.5C 111.5,87.5 113.5,87.5 115.5,87.5C 115.5,88.5 115.5,89.5 115.5,90.5 Z"/></g>
<g><path style="opacity:1" fill="#f9f6f8" d="M 130.5,90.5 C 131.5,90.5 132.5,90.5 133.5,90.5C 133.5,95.1667 133.5,99.8333 133.5,104.5C 132.5,104.5 131.5,104.5 130.5,104.5C 130.5,99.8333 130.5,95.1667 130.5,90.5 Z"/></g>
<g><path style="opacity:1" fill="#50418f" d="M 53.5,90.5 C 53.5,95.1667 53.5,99.8333 53.5,104.5C 56.9619,105.482 60.6286,105.815 64.5,105.5C 63.791,106.404 62.791,106.737 61.5,106.5C 61.5,108.167 61.5,109.833 61.5,111.5C 59.631,113.635 58.9644,116.302 59.5,119.5C 58.5151,115.366 58.1818,111.032 58.5,106.5C 55.0897,106.384 53.7564,108.05 54.5,111.5C 53.5,111.5 52.5,111.5 51.5,111.5C 52.6787,106.172 52.6787,100.838 51.5,95.5C 50.8333,97.1667 50.1667,98.8333 49.5,100.5C 48.7696,98.6587 48.1029,96.8254 47.5,95C 49.4054,94.1739 49.7388,93.0072 48.5,91.5C 47.4763,92.8532 46.143,93.5198 44.5,93.5C 44.6508,99.631 44.6508,105.631 44.5,111.5C 41.0257,109.596 38.1924,106.929 36,103.5C 35.3333,101.5 35.3333,99.5 36,97.5C 36.9529,99.3731 38.1196,99.7065 39.5,98.5C 39.2053,100.735 39.5386,102.735 40.5,104.5C 41.1667,104.5 41.8333,104.5 42.5,104.5C 43.4861,100.03 43.8195,95.3633 43.5,90.5C 45.1667,90.5 46.8333,90.5 48.5,90.5C 48.5,89.5 48.5,88.5 48.5,87.5C 46.8333,87.5 45.1667,87.5 43.5,87.5C 44.5676,86.5655 45.901,86.2322 47.5,86.5C 47.3398,84.8008 47.5065,83.1341 48,81.5C 49.1305,84.4453 49.9638,87.4453 50.5,90.5C 51.5,90.5 52.5,90.5 53.5,90.5 Z"/></g>
<g><path style="opacity:1" fill="#efebf5" d="M 97.5,87.5 C 98.8333,87.5 100.167,87.5 101.5,87.5C 103.5,93.1667 105.5,98.8333 107.5,104.5C 105.185,102.642 102.519,101.309 99.5,100.5C 97.9549,100.511 96.6216,100.844 95.5,101.5C 94.7326,102.172 94.0659,103.005 93.5,104C 92.365,104.749 91.365,104.583 90.5,103.5C 92.7019,98.8862 94.7019,94.2196 96.5,89.5C 96.8333,88.8333 97.1667,88.1667 97.5,87.5 Z"/></g>
<g><path style="opacity:1" fill="#55498a" d="M 98.5,92.5 C 102.546,95.464 102.213,97.1307 97.5,97.5C 97.366,95.7085 97.6993,94.0418 98.5,92.5 Z"/></g>
<g><path style="opacity:1" fill="#f9f5fc" d="M 163.5,90.5 C 163.5,91.8333 163.5,93.1667 163.5,94.5C 166.167,94.5 168.833,94.5 171.5,94.5C 171.5,95.5 171.5,96.5 171.5,97.5C 168.833,97.5 166.167,97.5 163.5,97.5C 163.5,98.8333 163.5,100.167 163.5,101.5C 166.358,102.166 169.358,102.833 172.5,103.5C 168.555,104.491 164.555,104.824 160.5,104.5C 160.5,99.8333 160.5,95.1667 160.5,90.5C 161.5,90.5 162.5,90.5 163.5,90.5 Z"/></g>
<g><path style="opacity:1" fill="#f0edf6" d="M 72.5,87.5 C 75.8499,87.335 79.1832,87.5017 82.5,88C 87.7948,91.4047 87.7948,94.9047 82.5,98.5C 83.711,100.422 85.0443,102.255 86.5,104C 85.1667,104.667 83.8333,104.667 82.5,104C 81.8366,102.482 80.8366,101.315 79.5,100.5C 78.8166,98.8235 77.4832,98.1568 75.5,98.5C 75.5,99.5 75.5,100.5 75.5,101.5C 74.5,101.5 73.5,101.5 72.5,101.5C 72.5,96.8333 72.5,92.1667 72.5,87.5 Z"/></g>
<g><path style="opacity:1" fill="#514291" d="M 75.5,90.5 C 77.8333,90.5 80.1667,90.5 82.5,90.5C 82.5,92.1667 82.5,93.8333 82.5,95.5C 80.1667,95.5 77.8333,95.5 75.5,95.5C 75.5,93.8333 75.5,92.1667 75.5,90.5 Z"/></g>
<g><path style="opacity:1" fill="#8e84b6" d="M 56.5,101.5 C 59.8333,101.5 63.1667,101.5 66.5,101.5C 66.8432,103.483 66.1765,104.817 64.5,105.5C 60.6286,105.815 56.9619,105.482 53.5,104.5C 57.5546,104.824 61.5546,104.491 65.5,103.5C 62.3583,102.833 59.3583,102.166 56.5,101.5 Z"/></g>
<g><path style="opacity:1" fill="#8c82b3" d="M 163.5,101.5 C 166.833,101.5 170.167,101.5 173.5,101.5C 173.5,102.833 173.5,104.167 173.5,105.5C 168.968,105.818 164.634,105.485 160.5,104.5C 164.555,104.824 168.555,104.491 172.5,103.5C 169.358,102.833 166.358,102.166 163.5,101.5 Z"/></g>
<g><path style="opacity:1" fill="#4e3e9b" d="M 95.5,101.5 C 97.8333,101.5 100.167,101.5 102.5,101.5C 102.5,102.5 102.5,103.5 102.5,104.5C 101.5,104.5 100.5,104.5 99.5,104.5C 99.4772,106.6 100.144,108.433 101.5,110C 100.548,111.3 100.548,112.467 101.5,113.5C 102.265,112.388 103.265,111.721 104.5,111.5C 104.5,114.167 104.5,116.833 104.5,119.5C 99.8112,119.315 97.1445,116.815 96.5,112C 97.624,111.751 98.624,111.251 99.5,110.5C 99,110.167 98.5,109.833 98,109.5C 94.414,110.024 90.5807,110.357 86.5,110.5C 86.5,109.167 86.5,107.833 86.5,106.5C 89.6021,106.846 92.4355,106.179 95,104.5C 95.7431,106.645 96.5765,106.811 97.5,105C 96.5705,103.923 95.9038,102.756 95.5,101.5 Z"/></g>
<g><path style="opacity:1" fill="#9b8ed5" d="M 142.5,111.5 C 144.124,111.36 145.29,112.027 146,113.5C 146.414,113.043 146.914,112.709 147.5,112.5C 148.583,113.365 148.749,114.365 148,115.5C 147.259,114.359 146.425,114.359 145.5,115.5C 144.402,111.639 143.569,111.639 143,115.5C 142.51,114.207 142.343,112.873 142.5,111.5 Z"/></g>
<g><path style="opacity:1" fill="#776e9a" d="M 61.5,111.5 C 62.4345,112.568 62.7678,113.901 62.5,115.5C 63.8333,115.5 65.1667,115.5 66.5,115.5C 65.0813,116.451 63.4147,116.784 61.5,116.5C 61.6567,115.127 61.49,113.793 61,112.5C 60.502,115.482 60.3354,118.482 60.5,121.5C 59.6618,121.158 59.3284,120.492 59.5,119.5C 58.9644,116.302 59.631,113.635 61.5,111.5 Z"/></g>
<g><path style="opacity:1" fill="#b6addb" d="M 67.5,121.5 C 67.7947,119.265 67.4614,117.265 66.5,115.5C 66.238,114.022 66.5713,112.689 67.5,111.5C 68.8056,114.98 68.8056,118.313 67.5,121.5 Z"/></g>
<g><path style="opacity:1" fill="#d3cbe6" d="M 82.5,111.5 C 81.3218,112.999 79.6551,113.999 77.5,114.5C 79.6551,115.001 81.3218,116.001 82.5,117.5C 75.9514,117.907 75.9514,118.907 82.5,120.5C 80.2573,121.474 77.924,121.808 75.5,121.5C 75.5,118.167 75.5,114.833 75.5,111.5C 77.8333,111.5 80.1667,111.5 82.5,111.5 Z"/></g>
<g><path style="opacity:1" fill="#776e97" d="M 106.5,111.5 C 107.473,113.948 107.806,116.615 107.5,119.5C 109.099,119.232 110.432,119.566 111.5,120.5C 109.833,120.5 108.167,120.5 106.5,120.5C 106.5,117.5 106.5,114.5 106.5,111.5 Z"/></g>
<g><path style="opacity:1" fill="#d3cbe7" d="M 121.5,121.5 C 120.167,118.833 118.833,116.167 117.5,113.5C 118.152,112.275 119.319,111.608 121,111.5C 125.277,112.059 125.444,112.726 121.5,113.5C 121.5,116.167 121.5,118.833 121.5,121.5 Z"/></g>
<g><path style="opacity:1" fill="#968eaf" d="M 131.5,112.5 C 131.5,111.833 131.833,111.5 132.5,111.5C 133.434,112.568 133.768,113.901 133.5,115.5C 134.833,115.5 136.167,115.5 137.5,115.5C 136.081,116.451 134.415,116.784 132.5,116.5C 132.768,114.901 132.434,113.568 131.5,112.5 Z"/></g>
<g><path style="opacity:1" fill="#fbf3fe" d="M 105.5,111.5 C 105.833,111.5 106.167,111.5 106.5,111.5C 106.5,114.5 106.5,117.5 106.5,120.5C 108.167,120.5 109.833,120.5 111.5,120.5C 109.735,121.461 107.735,121.795 105.5,121.5C 105.5,118.167 105.5,114.833 105.5,111.5 Z"/></g>
<g><path style="opacity:1" fill="#ebe2fe" d="M 66.5,115.5 C 67.4614,117.265 67.7947,119.265 67.5,121.5C 66.5655,120.432 66.2322,119.099 66.5,117.5C 64.8333,117.5 63.1667,117.5 61.5,117.5C 61.7678,119.099 61.4345,120.432 60.5,121.5C 60.3354,118.482 60.502,115.482 61,112.5C 61.49,113.793 61.6567,115.127 61.5,116.5C 63.4147,116.784 65.0813,116.451 66.5,115.5 Z"/></g>
<g><path style="opacity:1" fill="#d4cceb" d="M 90.5,121.5 C 89.506,120.001 89.506,118.334 90.5,116.5C 91.3909,115.739 92.0576,114.739 92.5,113.5C 93.325,112.614 94.325,112.281 95.5,112.5C 95.9239,115.354 96.9239,118.021 98.5,120.5C 98.1667,120.833 97.8333,121.167 97.5,121.5C 95.022,118.879 92.6886,118.879 90.5,121.5 Z"/></g>
<g><path style="opacity:1" fill="#5d5288" d="M 93.5,114.5 C 96.4809,117.122 96.1476,117.789 92.5,116.5C 92.8627,115.817 93.1961,115.15 93.5,114.5 Z"/></g>
<g><path style="opacity:1" fill="#f8f1fd" d="M 131.5,112.5 C 132.434,113.568 132.768,114.901 132.5,116.5C 134.415,116.784 136.081,116.451 137.5,115.5C 138.833,116.167 138.833,116.833 137.5,117.5C 135.833,117.5 134.167,117.5 132.5,117.5C 132.768,119.099 132.434,120.432 131.5,121.5C 131.5,118.5 131.5,115.5 131.5,112.5 Z"/></g>
<g><path style="opacity:1" fill="#c1badb" d="M 137.5,117.5 C 138.833,116.833 138.833,116.167 137.5,115.5C 137.238,114.022 137.571,112.689 138.5,111.5C 139.833,114.833 139.833,118.167 138.5,121.5C 137.571,120.311 137.238,118.978 137.5,117.5 Z"/></g>
</svg>
